<svg width="201" height="19" viewBox="0 0 201 19" fill="none" xmlns="http://www.w3.org/2000/svg">
<path d="M0.772031 18V1.2H3.70003V15.072H10.696V18H0.772031ZM31.822 18.312C30.686 18.312 29.618 18.088 28.618 17.64C27.618 17.184 26.738 16.556 25.978 15.756C25.218 14.956 24.622 14.032 24.19 12.984C23.758 11.928 23.542 10.8 23.542 9.6C23.542 8.4 23.758 7.276 24.19 6.228C24.622 5.172 25.218 4.244 25.978 3.444C26.738 2.644 27.618 2.02 28.618 1.572C29.618 1.116 30.686 0.887999 31.822 0.887999C32.966 0.887999 34.038 1.116 35.038 1.572C36.038 2.02 36.918 2.644 37.678 3.444C38.438 4.244 39.03 5.172 39.454 6.228C39.886 7.276 40.102 8.4 40.102 9.6C40.102 10.8 39.886 11.928 39.454 12.984C39.03 14.032 38.438 14.956 37.678 15.756C36.918 16.556 36.038 17.184 35.038 17.64C34.038 18.088 32.966 18.312 31.822 18.312ZM31.822 15.384C32.558 15.384 33.25 15.232 33.898 14.928C34.546 14.624 35.114 14.208 35.602 13.68C36.098 13.144 36.482 12.528 36.754 11.832C37.034 11.136 37.174 10.392 37.174 9.6C37.174 8.808 37.034 8.064 36.754 7.368C36.474 6.664 36.086 6.048 35.59 5.52C35.102 4.992 34.534 4.576 33.886 4.272C33.246 3.968 32.558 3.816 31.822 3.816C31.086 3.816 30.394 3.968 29.746 4.272C29.098 4.576 28.526 4.996 28.03 5.532C27.542 6.06 27.158 6.672 26.878 7.368C26.606 8.064 26.47 8.808 26.47 9.6C26.47 10.4 26.61 11.148 26.89 11.844C27.17 12.54 27.554 13.156 28.042 13.692C28.538 14.22 29.106 14.636 29.746 14.94C30.394 15.236 31.086 15.384 31.822 15.384ZM61.8393 18.312C60.6713 18.312 59.5833 18.084 58.5753 17.628C57.5753 17.172 56.7033 16.544 55.9593 15.744C55.2153 14.936 54.6313 14.008 54.2073 12.96C53.7913 11.904 53.5833 10.776 53.5833 9.576C53.5833 8.312 53.8073 7.152 54.2553 6.096C54.7113 5.04 55.3313 4.124 56.1153 3.348C56.8993 2.572 57.7873 1.972 58.7793 1.548C59.7793 1.124 60.8193 0.912 61.8993 0.912C63.1073 0.912 64.2793 1.196 65.4153 1.764C66.5593 2.324 67.5673 3.192 68.4393 4.368L65.8233 5.772C65.2873 5.116 64.6713 4.628 63.9753 4.308C63.2873 3.98 62.5833 3.816 61.8633 3.816C61.1593 3.816 60.4833 3.96 59.8353 4.248C59.1953 4.536 58.6233 4.944 58.1193 5.472C57.6233 5.992 57.2313 6.608 56.9433 7.32C56.6553 8.024 56.5113 8.796 56.5113 9.636C56.5113 10.428 56.6513 11.176 56.9313 11.88C57.2113 12.576 57.5953 13.188 58.0833 13.716C58.5793 14.236 59.1513 14.644 59.7993 14.94C60.4473 15.236 61.1433 15.384 61.8873 15.384C62.3833 15.384 62.8673 15.308 63.3393 15.156C63.8193 14.996 64.2673 14.768 64.6833 14.472C65.1073 14.176 65.4833 13.816 65.8113 13.392C66.1473 12.968 66.4273 12.488 66.6513 11.952H63.5913V9.396H70.0953C70.1273 10.62 69.9353 11.768 69.5193 12.84C69.1033 13.912 68.5153 14.86 67.7553 15.684C66.9953 16.508 66.1113 17.152 65.1033 17.616C64.0953 18.08 63.0073 18.312 61.8393 18.312ZM91.8689 18.312C90.7329 18.312 89.6649 18.088 88.6649 17.64C87.6649 17.184 86.7849 16.556 86.0249 15.756C85.2649 14.956 84.6689 14.032 84.2369 12.984C83.8049 11.928 83.5889 10.8 83.5889 9.6C83.5889 8.4 83.8049 7.276 84.2369 6.228C84.6689 5.172 85.2649 4.244 86.0249 3.444C86.7849 2.644 87.6649 2.02 88.6649 1.572C89.6649 1.116 90.7329 0.887999 91.8689 0.887999C93.0129 0.887999 94.0849 1.116 95.0849 1.572C96.0849 2.02 96.9649 2.644 97.7249 3.444C98.4849 4.244 99.0769 5.172 99.5009 6.228C99.9329 7.276 100.149 8.4 100.149 9.6C100.149 10.8 99.9329 11.928 99.5009 12.984C99.0769 14.032 98.4849 14.956 97.7249 15.756C96.9649 16.556 96.0849 17.184 95.0849 17.64C94.0849 18.088 93.0129 18.312 91.8689 18.312ZM91.8689 15.384C92.6049 15.384 93.2969 15.232 93.9449 14.928C94.5929 14.624 95.1609 14.208 95.6489 13.68C96.1449 13.144 96.5289 12.528 96.8009 11.832C97.0809 11.136 97.2209 10.392 97.2209 9.6C97.2209 8.808 97.0809 8.064 96.8009 7.368C96.5209 6.664 96.1329 6.048 95.6369 5.52C95.1489 4.992 94.5809 4.576 93.9329 4.272C93.2929 3.968 92.6049 3.816 91.8689 3.816C91.1329 3.816 90.4409 3.968 89.7929 4.272C89.1449 4.576 88.5729 4.996 88.0769 5.532C87.5889 6.06 87.2049 6.672 86.9249 7.368C86.6529 8.064 86.5169 8.808 86.5169 9.6C86.5169 10.4 86.6569 11.148 86.9369 11.844C87.2169 12.54 87.6009 13.156 88.0889 13.692C88.5849 14.22 89.1529 14.636 89.7929 14.94C90.4409 15.236 91.1329 15.384 91.8689 15.384ZM126.18 1.2V4.128H121.044V18H118.116V4.128H112.98V1.2H126.18ZM140.937 18V1.2H143.865V18H140.937ZM159.35 18V1.2H165.35C166.262 1.2 167.086 1.428 167.822 1.884C168.566 2.34 169.154 2.952 169.586 3.72C170.018 4.488 170.234 5.332 170.234 6.252C170.234 7.196 170.01 8.052 169.562 8.82C169.122 9.58 168.53 10.188 167.786 10.644C167.042 11.092 166.23 11.316 165.35 11.316H162.278V18H159.35ZM162.278 8.388H165.038C165.454 8.388 165.834 8.284 166.178 8.076C166.522 7.868 166.794 7.588 166.994 7.236C167.202 6.884 167.306 6.492 167.306 6.06C167.306 5.62 167.202 5.224 166.994 4.872C166.794 4.52 166.522 4.24 166.178 4.032C165.834 3.824 165.454 3.72 165.038 3.72H162.278V8.388ZM192.439 18.312C191.303 18.312 190.235 18.088 189.235 17.64C188.235 17.184 187.355 16.556 186.595 15.756C185.835 14.956 185.239 14.032 184.807 12.984C184.375 11.928 184.159 10.8 184.159 9.6C184.159 8.4 184.375 7.276 184.807 6.228C185.239 5.172 185.835 4.244 186.595 3.444C187.355 2.644 188.235 2.02 189.235 1.572C190.235 1.116 191.303 0.887999 192.439 0.887999C193.583 0.887999 194.655 1.116 195.655 1.572C196.655 2.02 197.535 2.644 198.295 3.444C199.055 4.244 199.647 5.172 200.071 6.228C200.503 7.276 200.719 8.4 200.719 9.6C200.719 10.8 200.503 11.928 200.071 12.984C199.647 14.032 199.055 14.956 198.295 15.756C197.535 16.556 196.655 17.184 195.655 17.64C194.655 18.088 193.583 18.312 192.439 18.312ZM192.439 15.384C193.175 15.384 193.867 15.232 194.515 14.928C195.163 14.624 195.731 14.208 196.219 13.68C196.715 13.144 197.099 12.528 197.371 11.832C197.651 11.136 197.791 10.392 197.791 9.6C197.791 8.808 197.651 8.064 197.371 7.368C197.091 6.664 196.703 6.048 196.207 5.52C195.719 4.992 195.151 4.576 194.503 4.272C193.863 3.968 193.175 3.816 192.439 3.816C191.703 3.816 191.011 3.968 190.363 4.272C189.715 4.576 189.143 4.996 188.647 5.532C188.159 6.06 187.775 6.672 187.495 7.368C187.223 8.064 187.087 8.808 187.087 9.6C187.087 10.4 187.227 11.148 187.507 11.844C187.787 12.54 188.171 13.156 188.659 13.692C189.155 14.22 189.723 14.636 190.363 14.94C191.011 15.236 191.703 15.384 192.439 15.384Z" fill="white"/>
</svg>
